HIERARCHY
ROOT RootJoint
{
    OFFSET   0.000000   0.000000   0.000000
    CHANNELS 6 Xposition Yposition Zposition Xrotation Yrotation Zrotation
    JOINT pelvis_lowerback
    {
        OFFSET   0.000000   0.093605   0.000000
        CHANNELS 3 Xrotation Yrotation Zrotation
        JOINT lowerback_torso
        {
            OFFSET   0.000000   0.100000   0.000000
            CHANNELS 3 Xrotation Yrotation Zrotation
            JOINT torso_head
            {
                OFFSET   0.000000   0.282350   0.000000
                CHANNELS 3 Xrotation Yrotation Zrotation
                End Site
                {
                    OFFSET   0.000000   0.192650   0.000000
                }
            }
            JOINT rTorso_Clavicle
            {
                OFFSET  -0.001000   0.157500   0.000000
                CHANNELS 3 Xrotation Yrotation Zrotation
                JOINT rShoulder
                {
                    OFFSET  -0.117647   0.000000   0.000000
                    CHANNELS 3 Xrotation Yrotation Zrotation
                    JOINT rElbow
                    {
                        OFFSET  -0.245000   0.000000   0.000000
                        CHANNELS 3 Xrotation Yrotation Zrotation
                        JOINT rWrist
                        {
                            OFFSET  -0.240000   0.000000   0.000000
                            CHANNELS 3 Xrotation Yrotation Zrotation
                            End Site
                            {
                                OFFSET  -0.116353  -0.002500   0.000000
                            }
                        }
                    }
                }
            }
            JOINT lTorso_Clavicle
            {
                OFFSET   0.001000   0.157500   0.000000
                CHANNELS 3 Xrotation Yrotation Zrotation
                JOINT lShoulder
                {
                    OFFSET   0.117647   0.000000   0.000000
                    CHANNELS 3 Xrotation Yrotation Zrotation
                    JOINT lElbow
                    {
                        OFFSET   0.245000   0.000000   0.000000
                        CHANNELS 3 Xrotation Yrotation Zrotation
                        JOINT lWrist
                        {
                            OFFSET   0.240000   0.000000   0.000000
                            CHANNELS 3 Xrotation Yrotation Zrotation
                            End Site
                            {
                                OFFSET   0.116353  -0.002500   0.000000
                            }
                        }
                    }
                }
            }
        }
    }
    JOINT rHip
    {
        OFFSET  -0.100000  -0.051395   0.000000
        CHANNELS 3 Xrotation Yrotation Zrotation
        JOINT rKnee
        {
            OFFSET   0.000000  -0.410000   0.000000
            CHANNELS 3 Xrotation Yrotation Zrotation
            JOINT rAnkle
            {
                OFFSET   0.000000  -0.390000   0.000000
                CHANNELS 3 Xrotation Yrotation Zrotation
                JOINT rToeJoint
                {
                    OFFSET   0.000000  -0.050000   0.130000
                    CHANNELS 3 Xrotation Yrotation Zrotation
                    End Site
                    {
                        OFFSET  -0.010000   0.002000   0.060000
                    }
                }
            }
        }
    }
    JOINT lHip
    {
        OFFSET   0.100000  -0.051395   0.000000
        CHANNELS 3 Xrotation Yrotation Zrotation
        JOINT lKnee
        {
            OFFSET   0.000000  -0.410000   0.000000
            CHANNELS 3 Xrotation Yrotation Zrotation
            JOINT lAnkle
            {
                OFFSET   0.000000  -0.390000   0.000000
                CHANNELS 3 Xrotation Yrotation Zrotation
                JOINT lToeJoint
                {
                    OFFSET   0.000000  -0.050000   0.130000
                    CHANNELS 3 Xrotation Yrotation Zrotation
                    End Site
                    {
                        OFFSET   0.010000   0.002000   0.060000
                    }
                }
            }
        }
    }
}
MOTION
Frames: 15
Frame Time:   0.008333
 -2.376719   0.925631   3.975860   0.000000   0.000000   0.000000   0.000000   0.000000   0.000000   0.000000   0.000000   0.000000   0.000000   0.000000   0.000000   0.000000   0.000000   0.000000   0.000000   0.000000   0.000000   0.000000   0.000000   0.000000   0.000000   0.000000   0.000000   0.000000   0.000000   0.000000   0.000000   0.000000   0.000000   0.000000   0.000000   0.000000   0.000000   0.000000   0.000000   0.000000   0.000000   0.000000   0.000000   0.000000   0.000000   0.000000   0.000000   0.000000   0.000000   0.000000   0.000000   0.000000   0.000000   0.000000   0.000000   0.000000   0.000000   0.000000   0.000000   0.000000   0.000000   0.000000   0.000000
 -2.376273   0.925519   3.973537   2.211877  -0.467685   0.375550  -2.373544   0.518324  -0.273092   0.299969  -0.232934  -0.228089  -0.265388  -0.280216   0.151088   0.193733  -0.409898  -0.467017   0.213996  -0.071761   2.552129   0.025172   1.481681  -0.007176   0.129712  -0.123282  -2.314078   0.168941   0.693084   0.621143   0.291478   0.297625  -2.112512   0.012171  -0.850832   0.004425  -0.003431  -0.360978   1.825625  -3.483520  -0.382904  -0.443521   2.351427   0.001425  -0.017959  -1.883418  -0.914295   0.537413  -0.184406   0.000707   0.002870  -3.082922   0.388206  -0.482081   1.156381   0.001317  -0.001023  -0.492345   0.284294   0.360120   0.219025  -0.000435   0.000355
 -2.375602   0.925393   3.970840   4.378561  -0.989730   0.821865  -4.497285   1.064446  -0.533789   0.596102  -0.407253  -0.476828  -0.518713  -0.561151   0.274327   0.375488  -0.866795  -0.398477   0.416582  -0.158108   5.361936   0.054414   2.888726  -0.014250   0.283339   0.086339  -3.997280   0.326461   1.510847   0.761198   0.580882   0.680566  -4.456340   0.025490  -1.621431   0.008506   0.020794  -0.786947   3.086469  -6.903103  -0.761937  -0.955196   4.639164   0.001888  -0.033994  -3.634762  -1.802774   1.006412  -0.405419   0.001218   0.005875  -6.216255   0.798206  -1.032256   2.240074   0.002752  -0.002593  -0.953546   0.548333   0.699242   0.402668  -0.000588   0.000425
 -2.374775   0.924985   3.968057   6.408796  -1.512308   1.273673  -6.388670   1.616787  -0.743334   0.941484  -0.528472  -0.700427  -0.735896  -0.825549   0.381906   0.550343  -1.321712   0.024015   0.609992  -0.250196   8.251313   0.081103   4.193728  -0.020208   0.434956   0.304677  -5.072459   0.477263   2.353332   0.559149   0.871052   1.085776  -6.893032   0.036997  -2.316033   0.011759   0.045903  -1.094760   3.801069 -10.088681  -1.092181  -1.456920   6.770815   0.001523  -0.045470  -5.264454  -2.646730   1.417181  -0.612659   0.001445   0.007963  -9.246701   1.208986  -1.563779   3.210523   0.003937  -0.004084  -1.387812   0.790731   1.017493   0.559735  -0.000601   0.000375
 -2.373835   0.924685   3.965197   8.273150  -2.063700   1.624085  -8.051957   2.177873  -0.822705   1.334659  -0.597829  -0.857090  -0.922359  -1.072199   0.482690   0.720497  -1.742679   0.699157   0.794964  -0.327791  11.143976   0.103463   5.407525  -0.024964   0.578709   0.492940  -5.715329   0.624779   3.180597   0.090615   1.162817   1.483491  -9.365623   0.046069  -2.949235   0.014173   0.066415  -1.302244   4.115241 -13.185568  -1.370140  -1.868194   8.610733   0.001232  -0.052139  -6.768189  -3.444047   1.774691  -0.771241   0.001406   0.008777 -12.135917   1.615965  -1.967911   4.088460   0.004895  -0.005495  -1.794827   1.014860   1.316863   0.706154  -0.000538   0.000252
 -2.372794   0.924054   3.962507   9.973346  -2.554844   1.978605  -9.544201   2.711641  -0.891775   1.758409  -0.647093  -0.982678  -1.077809  -1.302997   0.578997   0.887999  -2.134314   1.516708   0.973055  -0.392546  13.985396   0.120055   6.538196  -0.028092   0.715325   0.660355  -6.014447   0.770068   3.971861  -0.502852   1.454608   1.857565 -11.794982   0.052305  -3.532856   0.015576   0.084569  -1.453029   4.134399 -16.074749  -1.624751  -2.266937  10.396975   0.000614  -0.056106  -8.164568  -4.207021   2.104344  -0.955128   0.001366   0.009657 -14.871844   2.014718  -2.371159   4.888630   0.005696  -0.006274  -2.177501   1.220814   1.597338   0.832685  -0.000421   0.000174
 -2.371678   0.923100   3.960054  11.535062  -2.988302   2.302471 -10.906972   3.220405  -0.917471   2.183909  -0.681409  -1.077482  -1.210976  -1.518572   0.667918   1.052343  -2.499032   2.413826   1.144005  -0.447126  16.733036   0.131031   7.591251  -0.029651   0.844184   0.808390  -6.092162   0.912783   4.723351  -1.172691   1.744214   2.205699 -14.147198   0.055967  -4.072851   0.016024   0.100535  -1.568020   3.974370 -18.767092  -1.848404  -2.620456  12.110471  -0.000149  -0.057515  -9.447281  -4.928434   2.400178  -1.124634   0.001269   0.009975 -17.470452   2.406772  -2.741609   5.617410   0.006321  -0.006517  -2.536537   1.410846   1.860100   0.946176  -0.000285   0.000139
 -2.370138   0.921003   3.957841  12.567763  -3.485520   2.669309 -11.684821   3.743623  -0.894219   2.542318  -0.802693  -1.141439  -1.444290  -1.929040   0.654741   1.339933  -2.687848   2.937790   1.392424  -0.065733  19.245166   0.131761   8.506046  -0.032255   0.964406   0.588298  -5.601544   1.116799   5.608885  -1.390275   2.132219   2.305039 -16.966189   0.062435  -4.775182   0.018139   0.078257  -1.489019   3.630711 -21.210811  -2.203327  -3.054138  15.006010  -0.002195  -0.073134 -10.305827  -5.975859   2.447769  -1.583001  -0.000228   0.016464 -19.710310   2.961020  -3.194826   7.276269   0.010302  -0.007771  -3.318598   1.703123   2.358985   1.059824  -0.000329   0.000276
 -2.368460   0.917930   3.956223  13.444356  -3.980779   3.039186 -12.450831   4.251044  -0.826356   2.886077  -0.893028  -1.198474  -1.654464  -2.325819   0.649648   1.596213  -2.790894   3.304925   1.590795   0.352203  21.503588   0.128431   9.382729  -0.032514   1.101092   0.428888  -5.160092   1.308790   6.419658  -1.567520   2.494326   2.363980 -19.598228   0.065320  -5.446987   0.018269   0.072887  -1.502412   3.206198 -23.392730  -2.536462  -3.488527  17.916568  -0.005465  -0.085411 -11.087794  -6.962704   2.475584  -1.936539  -0.001323   0.019522 -21.715818   3.502642  -3.659915   8.982674   0.014030  -0.009503  -4.042620   1.972463   2.828229   1.174787  -0.000307   0.000329
 -2.366764   0.913944   3.955084  14.244528  -4.455107   3.400404 -13.229676   4.742971  -0.734223   3.166584  -0.956091  -1.248954  -1.856339  -2.697286   0.651253   1.827020  -2.858256   3.574212   1.750561   0.766618  23.557086   0.122356  10.211796  -0.031038   1.240881   0.336279  -4.835861   1.488129   7.170923  -1.705598   2.831421   2.403326 -22.035436   0.065381  -6.078093   0.016954   0.070497  -1.551057   2.818344 -25.365799  -2.837356  -3.901339  20.684445  -0.009295  -0.092567 -11.815943  -7.884541   2.487525  -2.250802  -0.002118   0.020960 -23.556072   4.023512  -4.113834  10.612320   0.016840  -0.011117  -4.717453   2.217888   3.268785   1.289883  -0.000251   0.000329
 -2.365067   0.910071   3.954146  14.926893  -5.002842   3.587287 -13.947642   5.237175  -0.481331   3.412071  -0.977702  -1.234797  -2.054981  -3.043339   0.659510   2.029067  -2.881395   3.821530   1.873360   1.179702  25.446718   0.115247  10.992238  -0.028815   1.378200   0.281206  -4.630087   1.653513   7.864782  -1.891048   3.144226   2.425411 -24.333196   0.063936  -6.668102   0.015073   0.066325  -1.602297   2.481508 -27.480698  -3.078868  -4.197094  23.240300  -0.011582  -0.095863 -12.475716  -8.748022   2.497673  -2.482536  -0.002469   0.020492 -25.215190   4.511197  -4.385567  12.147486   0.018899  -0.012881  -5.345786   2.443421   3.683562   1.415789  -0.000158   0.000269
 -2.363303   0.907244   3.953636  15.534901  -5.338422   4.221752 -14.645126   5.684832  -0.639070   3.633121  -1.012920  -1.377385  -2.238599  -3.367543   0.661126   2.219435  -2.893378   4.161912   1.974555   1.576500  27.276288   0.107992  11.724817  -0.026040   1.512806   0.252094  -4.423552   1.803940   8.497162  -2.081171   3.430931   2.428824 -26.463919   0.061693  -7.218349   0.012825   0.061797  -1.643401   2.203690 -29.353597  -3.261946  -4.936388  25.571351  -0.014188  -0.095499 -13.113594  -9.552791   2.480323  -2.726532  -0.002760   0.020107 -26.841957   4.891830  -4.888752  14.125243   0.017460  -0.016843  -5.555021   2.588456   4.196333   1.529883  -0.000479  -0.000007
 -2.361574   0.904522   3.953544  16.094195  -5.607432   4.812200 -15.362692   6.104282  -0.699333   3.799537  -1.047936  -1.533788  -2.414254  -3.670038   0.645988   2.402826  -2.915883   4.425801   2.061719   1.941731  28.963414   0.099948  12.407984  -0.022916   1.641722   0.232757  -4.194092   1.947854   9.095559  -2.262298   3.701332   2.426686 -28.474408   0.058464  -7.733642   0.010236   0.058333  -1.694370   1.878750 -31.016152  -3.425049  -5.564650  27.762549  -0.017316  -0.091737 -13.712413 -10.303926   2.454285  -2.957622  -0.002826   0.019305 -28.258112   5.349931  -5.339884  15.880466   0.015836  -0.016955  -5.915087   2.780315   4.568373   1.657901  -0.000632  -0.000027
 -2.360122   0.902128   3.953442  16.488638  -5.816363   5.433688 -15.657024   6.397684  -1.005725   3.707962  -0.989296  -1.537958  -2.584913  -3.839865   0.558131   2.584908  -3.008236   4.293762   2.266047   2.498209  30.563080   0.092146  13.170925  -0.021779   1.603452   0.191046  -3.454144   2.172273   9.652587  -2.103666   3.932496   2.326472 -30.536150   0.060400  -8.635812   0.008581   0.039065  -1.418964   1.223273 -31.906352  -3.834846  -6.166152  27.456879  -0.012752  -0.070926 -12.705137 -10.919894   2.494002  -2.864006  -0.002215   0.014127 -29.243960   5.704277  -5.865585  17.143839   0.013722  -0.016629  -6.295103   3.096636   4.988375   1.784984  -0.000814   0.000055
 -2.359027   0.900861   3.953254  16.935918  -5.993122   5.659410 -15.982762   6.620383  -1.030009   3.575891  -0.964277  -1.433697  -2.752055  -3.994006   0.484774   2.740359  -3.078647   4.041006   2.431570   3.035366  31.948454   0.083184  13.892259  -0.020589   1.573749   0.213733  -2.820609   2.356372  10.118719  -1.917384   4.119162   2.179947 -32.433669   0.059959  -9.508152   0.007109   0.030726  -1.309210   0.602943 -32.845966  -4.094707  -6.514598  27.949157  -0.010933  -0.059448 -11.349536 -11.414895   2.546396  -2.675711  -0.001153   0.009356 -30.120131   5.963407  -5.991576  18.034464   0.011495  -0.014291  -6.794575   3.372162   5.400155   1.907414  -0.000967   0.000256
